<?xml version="1.0" encoding="UTF-8"?>
<svg width="61px" height="62px" viewBox="0 0 61 62" version="1.1" xmlns="http://www.w3.org/2000/svg" xmlns:xlink="http://www.w3.org/1999/xlink">
    <!-- Generator: Sketch 49.1 (51147) - http://www.bohemiancoding.com/sketch -->
    <title>mentorhub-logo-compressed</title>
    <desc>Created with Sketch.</desc>
    <defs>
        <polygon id="path-1" points="0 0 61 0 61 62 0 62"></polygon>
    </defs>
    <g id="Symbols" stroke="none" stroke-width="1" fill="none" fill-rule="evenodd">
        <g id="top-header" transform="translate(-14.000000, -12.000000)">
            <g id="mentorhub-logo-compressed" transform="translate(14.000000, 12.000000)">
                <mask id="mask-2" fill="white">
                    <use xlink:href="#path-1"></use>
                </mask>
                <g id="Clip-3"></g>
                <path d="M60.5798645,39.6154585 C61.8957396,43.2486234 60.0177148,47.262037 56.3835773,48.5798454 C52.7513749,49.8957187 48.7369881,48.0176966 47.4201454,44.3854992 C46.1042702,40.7503992 47.982295,36.7369856 51.615465,35.4201448 C55.2496025,34.1042715 59.2630217,35.9822936 60.5798645,39.6154585" id="Fill-2" fill="#E05557" mask="url(#mask-2)"></path>
                <path d="M13.5793629,17.6156119 C14.896203,21.249865 13.0181819,25.263412 9.3840515,26.579329 C5.7508886,27.8962136 1.73747724,26.0181291 0.420637104,22.3858111 C-0.896203029,18.7515579 0.981818057,14.7380109 4.6159485,13.4201587 C8.2491114,12.1042417 12.2625228,13.9823262 13.5793629,17.6156119" id="Fill-4" fill="#5D5896" mask="url(#mask-2)"></path>
                <path d="M39.6155652,0.420646648 C43.2498441,-0.896192559 47.2624518,0.981827207 48.5793457,4.61498755 C49.8962396,8.24911544 48.0181418,12.262524 44.383863,13.5793632 C40.7505517,14.8962024 36.737944,13.0181826 35.4210501,9.38405474 C34.1031886,5.7508944 35.9822539,1.73748586 39.6155652,0.420646648" id="Fill-5" fill="#49BFE2" mask="url(#mask-2)"></path>
                <path d="M16.6158737,48.4206371 C20.2490618,47.103797 24.2625009,48.9818181 25.5793501,52.6159485 C26.8961994,56.2491114 25.0181653,60.2625228 21.3849773,61.5793629 C17.7508217,62.896203 13.7373825,61.0181819 12.4205333,57.3840515 C11.1036841,53.7508886 12.9826857,49.7374772 16.6158737,48.4206371" id="Fill-6" fill="#50B481" mask="url(#mask-2)"></path>
                <path d="M41.3388837,28.2529958 C43.4084159,33.9632273 40.4572357,40.2693515 34.7470042,42.3388837 C29.0377479,44.4084159 22.7296733,41.4572357 20.6611163,35.7470042 C18.5915841,30.0367727 21.5427643,23.7306485 27.2529958,21.6611163 C32.9632273,19.5915841 39.2693515,22.5427643 41.3388837,28.2529958" id="Fill-1" fill="#ED9A2D" mask="url(#mask-2)"></path>
            </g>
        </g>
    </g>
</svg>